<svg width="173" height="35" viewBox="0 0 173 35" fill="none" xmlns="http://www.w3.org/2000/svg">
<path d="M5.625 13.3281V21.8594C5.62612 22.1249 5.7139 22.3827 5.875 22.5938C6.92188 24 11.3594 29.125 20 29.125C28.6406 29.125 33.0781 24 34.125 22.5938C34.2861 22.3827 34.3739 22.1249 34.375 21.8594V13.3281L20 21L5.625 13.3281Z" fill="#CFBEF2"/>
<path fill-rule="evenodd" clip-rule="evenodd" d="M19.5294 0.117647C19.8235 -0.0392157 20.1765 -0.0392157 20.4706 0.117647L39.2206 10.1176C39.5465 10.2914 39.75 10.6307 39.75 11C39.75 11.3693 39.5465 11.7086 39.2206 11.8824L35.375 13.9333V21.8594L35.375 21.8636C35.373 22.3447 35.2146 22.812 34.9239 23.1952C34.3451 23.9719 32.8641 25.7263 30.375 27.2755V33.5C30.375 34.0522 29.9273 34.5 29.375 34.5C28.8227 34.5 28.375 34.0522 28.375 33.5V28.3539C26.1642 29.3747 23.3869 30.125 20 30.125C10.9233 30.125 6.22434 24.7359 5.07605 23.1952C4.78537 22.812 4.62704 22.3447 4.62501 21.8636L4.625 21.8594V13.9333L0.779412 11.8824C0.453548 11.7086 0.25 11.3693 0.25 11C0.25 10.6307 0.453548 10.2914 0.779412 10.1176L19.5294 0.117647ZM6.1789 12.4954C6.12492 12.4594 6.06723 12.4286 6.00655 12.4035L3.375 11L20 2.13333L36.625 11L33.9935 12.4035C33.9328 12.4286 33.8751 12.4594 33.8211 12.4954L29.3751 14.8666L20.4706 10.1176C19.9833 9.8577 19.3776 10.0421 19.1177 10.5294C18.8578 11.0167 19.0421 11.6224 19.5294 11.8823L27.2501 16L20 19.8667L6.1789 12.4954ZM6.625 15V21.8564C6.62547 21.9036 6.6412 21.9494 6.66986 21.987L6.67719 21.9966C7.62818 23.274 11.8039 28.125 20 28.125C23.5069 28.125 26.2778 27.2369 28.375 26.1206V17.6667L20.4706 21.8824C20.1765 22.0392 19.8235 22.0392 19.5294 21.8824L6.625 15ZM30.375 24.8614C31.9616 23.6923 32.9248 22.5313 33.3229 21.9966L33.3301 21.9869C33.3587 21.9494 33.3745 21.9037 33.375 21.8565V15L30.375 16.6V24.8614Z" fill="#2D2F31"/>
<path d="M59.1023 13.6286C58.9957 13.2834 58.8487 12.9744 58.6612 12.7017C58.478 12.4247 58.2564 12.1882 57.9964 11.9922C57.7408 11.7962 57.4467 11.6491 57.1143 11.5511C56.782 11.4489 56.4197 11.3977 56.0277 11.3977C55.3246 11.3977 54.6982 11.5746 54.1484 11.9283C53.5987 12.282 53.1662 12.8018 52.8509 13.4879C52.5398 14.1697 52.3842 15.0007 52.3842 15.9808C52.3842 16.9695 52.5398 17.8068 52.8509 18.4929C53.1619 19.179 53.5945 19.701 54.1484 20.0589C54.7024 20.4126 55.3459 20.5895 56.0788 20.5895C56.7436 20.5895 57.3189 20.4616 57.8047 20.206C58.2947 19.9503 58.6719 19.5881 58.9361 19.1193C59.2003 18.6463 59.3324 18.0923 59.3324 17.4574L59.8693 17.5405H56.3153V15.6868H61.6271V17.2592C61.6271 18.38 61.3885 19.3494 60.9112 20.1676C60.434 20.9858 59.7777 21.6165 58.9425 22.0597C58.1072 22.4986 57.1484 22.718 56.0661 22.718C54.8601 22.718 53.8011 22.4474 52.8892 21.9062C51.9815 21.3608 51.272 20.5874 50.7607 19.5859C50.2536 18.5803 50 17.3871 50 16.0064C50 14.9496 50.1492 14.0057 50.4474 13.1747C50.75 12.3438 51.1719 11.6385 51.7131 11.0589C52.2543 10.4751 52.8892 10.032 53.6179 9.7294C54.3466 9.42259 55.1392 9.26918 55.9957 9.26918C56.7202 9.26918 57.3956 9.37571 58.022 9.58878C58.6484 9.79759 59.2045 10.0959 59.6903 10.4837C60.1804 10.8714 60.5831 11.3317 60.8984 11.8643C61.2138 12.397 61.4205 12.9851 61.5185 13.6286H59.1023Z" fill="#2D2F31"/>
<path d="M68.1007 22.7308C67.1419 22.7308 66.3109 22.5199 65.6078 22.098C64.9046 21.6761 64.3592 21.0859 63.9714 20.3274C63.5879 19.5689 63.3961 18.6825 63.3961 17.6683C63.3961 16.6541 63.5879 15.7656 63.9714 15.0028C64.3592 14.2401 64.9046 13.6477 65.6078 13.2259C66.3109 12.804 67.1419 12.593 68.1007 12.593C69.0595 12.593 69.8904 12.804 70.5936 13.2259C71.2967 13.6477 71.84 14.2401 72.2235 15.0028C72.6113 15.7656 72.8052 16.6541 72.8052 17.6683C72.8052 18.6825 72.6113 19.5689 72.2235 20.3274C71.84 21.0859 71.2967 21.6761 70.5936 22.098C69.8904 22.5199 69.0595 22.7308 68.1007 22.7308ZM68.1135 20.8771C68.6333 20.8771 69.068 20.7344 69.4174 20.4489C69.7669 20.1591 70.0268 19.7713 70.1973 19.2855C70.372 18.7997 70.4593 18.2585 70.4593 17.6619C70.4593 17.0611 70.372 16.5178 70.1973 16.032C70.0268 15.5419 69.7669 15.152 69.4174 14.8622C69.068 14.5724 68.6333 14.4276 68.1135 14.4276C67.5808 14.4276 67.1376 14.5724 66.7839 14.8622C66.4345 15.152 66.1724 15.5419 65.9977 16.032C65.8272 16.5178 65.742 17.0611 65.742 17.6619C65.742 18.2585 65.8272 18.7997 65.9977 19.2855C66.1724 19.7713 66.4345 20.1591 66.7839 20.4489C67.1376 20.7344 67.5808 20.8771 68.1135 20.8771Z" fill="#2D2F31"/>
<path d="M79.0518 22.7308C78.093 22.7308 77.2621 22.5199 76.5589 22.098C75.8558 21.6761 75.3104 21.0859 74.9226 20.3274C74.5391 19.5689 74.3473 18.6825 74.3473 17.6683C74.3473 16.6541 74.5391 15.7656 74.9226 15.0028C75.3104 14.2401 75.8558 13.6477 76.5589 13.2259C77.2621 12.804 78.093 12.593 79.0518 12.593C80.0107 12.593 80.8416 12.804 81.5447 13.2259C82.2479 13.6477 82.7912 14.2401 83.1747 15.0028C83.5625 15.7656 83.7564 16.6541 83.7564 17.6683C83.7564 18.6825 83.5625 19.5689 83.1747 20.3274C82.7912 21.0859 82.2479 21.6761 81.5447 22.098C80.8416 22.5199 80.0107 22.7308 79.0518 22.7308ZM79.0646 20.8771C79.5845 20.8771 80.0192 20.7344 80.3686 20.4489C80.718 20.1591 80.978 19.7713 81.1484 19.2855C81.3232 18.7997 81.4105 18.2585 81.4105 17.6619C81.4105 17.0611 81.3232 16.5178 81.1484 16.032C80.978 15.5419 80.718 15.152 80.3686 14.8622C80.0192 14.5724 79.5845 14.4276 79.0646 14.4276C78.532 14.4276 78.0888 14.5724 77.7351 14.8622C77.3857 15.152 77.1236 15.5419 76.9489 16.032C76.7784 16.5178 76.6932 17.0611 76.6932 17.6619C76.6932 18.2585 76.7784 18.7997 76.9489 19.2855C77.1236 19.7713 77.3857 20.1591 77.7351 20.4489C78.0888 20.7344 78.532 20.8771 79.0646 20.8771Z" fill="#2D2F31"/>
<path d="M89.3638 22.7116C88.5925 22.7116 87.9022 22.5135 87.2928 22.1172C86.6834 21.7209 86.2019 21.1456 85.8482 20.3913C85.4945 19.6371 85.3176 18.7209 85.3176 17.6428C85.3176 16.5518 85.4966 15.6314 85.8546 14.8814C86.2168 14.1271 86.7047 13.5582 87.3184 13.1747C87.932 12.7869 88.6159 12.593 89.3702 12.593C89.9455 12.593 90.4185 12.6911 90.7892 12.8871C91.16 13.0788 91.454 13.3111 91.6713 13.5838C91.8887 13.8523 92.057 14.1058 92.1763 14.3445H92.2722V9.44815H94.5925V22.5391H92.3169V20.9922H92.1763C92.057 21.2308 91.8844 21.4844 91.6586 21.7528C91.4327 22.017 91.1344 22.2429 90.7637 22.4304C90.3929 22.6179 89.9263 22.7116 89.3638 22.7116ZM90.0094 20.8132C90.4995 20.8132 90.9171 20.6811 91.2623 20.4169C91.6074 20.1484 91.8695 19.7756 92.0485 19.2983C92.2275 18.821 92.3169 18.2649 92.3169 17.63C92.3169 16.995 92.2275 16.4432 92.0485 15.9744C91.8738 15.5057 91.6138 15.1413 91.2686 14.8814C90.9277 14.6214 90.508 14.4915 90.0094 14.4915C89.4938 14.4915 89.0634 14.6257 88.7182 14.8942C88.373 15.1626 88.1131 15.5334 87.9384 16.0064C87.7637 16.4794 87.6763 17.0206 87.6763 17.63C87.6763 18.2436 87.7637 18.7912 87.9384 19.2727C88.1174 19.75 88.3794 20.1271 88.7246 20.4041C89.074 20.6768 89.5023 20.8132 90.0094 20.8132Z" fill="#2D2F31"/>
<path d="M112.831 13.8651H110.44C110.372 13.473 110.246 13.1257 110.063 12.8232C109.88 12.5163 109.652 12.2564 109.379 12.0433C109.106 11.8303 108.795 11.6705 108.446 11.5639C108.1 11.4531 107.728 11.3977 107.327 11.3977C106.615 11.3977 105.985 11.5767 105.435 11.9347C104.885 12.2884 104.455 12.8082 104.144 13.4943C103.833 14.1761 103.677 15.0092 103.677 15.9936C103.677 16.995 103.833 17.8388 104.144 18.5249C104.459 19.2067 104.89 19.7223 105.435 20.0717C105.985 20.4169 106.613 20.5895 107.321 20.5895C107.713 20.5895 108.079 20.5384 108.42 20.4361C108.765 20.3295 109.074 20.174 109.347 19.9695C109.624 19.7649 109.856 19.5135 110.044 19.2152C110.235 18.9169 110.368 18.576 110.44 18.1925L112.831 18.2053C112.741 18.8274 112.547 19.4112 112.249 19.9567C111.955 20.5021 111.569 20.9837 111.092 21.4013C110.615 21.8146 110.056 22.1385 109.417 22.3729C108.778 22.603 108.069 22.718 107.289 22.718C106.138 22.718 105.111 22.4517 104.208 21.919C103.304 21.3864 102.593 20.6172 102.073 19.6115C101.553 18.6058 101.293 17.3999 101.293 15.9936C101.293 14.5831 101.555 13.3771 102.079 12.3757C102.603 11.37 103.317 10.6009 104.221 10.0682C105.124 9.53551 106.147 9.26918 107.289 9.26918C108.017 9.26918 108.695 9.37145 109.321 9.57599C109.948 9.78054 110.506 10.081 110.996 10.4773C111.486 10.8693 111.889 11.3509 112.204 11.9219C112.524 12.4886 112.733 13.1364 112.831 13.8651Z" fill="#2D2F31"/>
<path d="M119.183 22.7308C118.224 22.7308 117.393 22.5199 116.69 22.098C115.987 21.6761 115.441 21.0859 115.053 20.3274C114.67 19.5689 114.478 18.6825 114.478 17.6683C114.478 16.6541 114.67 15.7656 115.053 15.0028C115.441 14.2401 115.987 13.6477 116.69 13.2259C117.393 12.804 118.224 12.593 119.183 12.593C120.142 12.593 120.972 12.804 121.676 13.2259C122.379 13.6477 122.922 14.2401 123.306 15.0028C123.693 15.7656 123.887 16.6541 123.887 17.6683C123.887 18.6825 123.693 19.5689 123.306 20.3274C122.922 21.0859 122.379 21.6761 121.676 22.098C120.972 22.5199 120.142 22.7308 119.183 22.7308ZM119.195 20.8771C119.715 20.8771 120.15 20.7344 120.499 20.4489C120.849 20.1591 121.109 19.7713 121.279 19.2855C121.454 18.7997 121.541 18.2585 121.541 17.6619C121.541 17.0611 121.454 16.5178 121.279 16.032C121.109 15.5419 120.849 15.152 120.499 14.8622C120.15 14.5724 119.715 14.4276 119.195 14.4276C118.663 14.4276 118.22 14.5724 117.866 14.8622C117.517 15.152 117.254 15.5419 117.08 16.032C116.909 16.5178 116.824 17.0611 116.824 17.6619C116.824 18.2585 116.909 18.7997 117.08 19.2855C117.254 19.7713 117.517 20.1591 117.866 20.4489C118.22 20.7344 118.663 20.8771 119.195 20.8771Z" fill="#2D2F31"/>
<path d="M132.109 18.4098V12.7209H134.423V22.5391H132.179V20.794H132.077C131.855 21.3438 131.491 21.7933 130.984 22.1428C130.481 22.4922 129.861 22.6669 129.124 22.6669C128.48 22.6669 127.912 22.5241 127.417 22.2386C126.927 21.9489 126.544 21.5291 126.267 20.9794C125.99 20.4254 125.851 19.7564 125.851 18.9723V12.7209H128.165V18.6143C128.165 19.2365 128.336 19.7308 128.676 20.0973C129.017 20.4638 129.465 20.647 130.019 20.647C130.36 20.647 130.69 20.5639 131.01 20.3977C131.329 20.2315 131.591 19.9844 131.796 19.6562C132.005 19.3239 132.109 18.9084 132.109 18.4098Z" fill="#2D2F31"/>
<path d="M136.802 22.5391V12.7209H139.046V14.3572H139.148C139.327 13.7905 139.634 13.3537 140.069 13.0469C140.508 12.7358 141.008 12.5803 141.571 12.5803C141.699 12.5803 141.841 12.5866 141.999 12.5994C142.161 12.608 142.295 12.6229 142.402 12.6442V14.7727C142.304 14.7386 142.148 14.7088 141.935 14.6832C141.726 14.6534 141.524 14.6385 141.328 14.6385C140.906 14.6385 140.527 14.7301 140.19 14.9134C139.858 15.0923 139.596 15.3416 139.404 15.6612C139.212 15.9808 139.116 16.3494 139.116 16.767V22.5391H136.802Z" fill="#2D2F31"/>
<path d="M151.699 15.3161L149.59 15.5462C149.53 15.3331 149.426 15.1328 149.276 14.9453C149.132 14.7578 148.936 14.6065 148.688 14.4915C148.441 14.3764 148.139 14.3189 147.781 14.3189C147.299 14.3189 146.894 14.4233 146.566 14.6321C146.242 14.8409 146.083 15.1115 146.087 15.4439C146.083 15.7294 146.187 15.9616 146.4 16.1406C146.617 16.3196 146.975 16.4666 147.474 16.5817L149.149 16.9396C150.078 17.1399 150.768 17.4574 151.22 17.892C151.676 18.3267 151.906 18.8956 151.91 19.5987C151.906 20.2166 151.725 20.7621 151.367 21.2351C151.013 21.7038 150.521 22.0703 149.89 22.3345C149.259 22.5987 148.535 22.7308 147.717 22.7308C146.515 22.7308 145.548 22.4794 144.815 21.9766C144.082 21.4695 143.645 20.7642 143.504 19.8608L145.761 19.6435C145.863 20.0866 146.08 20.4212 146.413 20.647C146.745 20.8729 147.178 20.9858 147.71 20.9858C148.26 20.9858 148.701 20.8729 149.034 20.647C149.37 20.4212 149.539 20.142 149.539 19.8097C149.539 19.5284 149.43 19.2962 149.213 19.1129C148.999 18.9297 148.667 18.7891 148.215 18.6911L146.541 18.3395C145.599 18.1435 144.902 17.8132 144.45 17.3487C143.999 16.88 143.775 16.2876 143.779 15.5717C143.775 14.9666 143.939 14.4425 144.271 13.9993C144.608 13.5518 145.075 13.2067 145.671 12.9638C146.272 12.7166 146.965 12.593 147.749 12.593C148.899 12.593 149.805 12.8381 150.465 13.3281C151.13 13.8182 151.541 14.4808 151.699 15.3161Z" fill="#2D2F31"/>
<path d="M158.165 22.7308C157.18 22.7308 156.33 22.5263 155.614 22.1172C154.903 21.7038 154.355 21.12 153.971 20.3658C153.588 19.6072 153.396 18.7145 153.396 17.6875C153.396 16.6776 153.588 15.7912 153.971 15.0284C154.359 14.2614 154.9 13.6648 155.595 13.2386C156.29 12.8082 157.106 12.593 158.043 12.593C158.648 12.593 159.219 12.6911 159.756 12.8871C160.297 13.0788 160.775 13.3771 161.188 13.782C161.606 14.1868 161.934 14.7024 162.172 15.3288C162.411 15.951 162.53 16.6925 162.53 17.5533V18.2628H154.483V16.7031H160.312C160.308 16.2599 160.212 15.8658 160.025 15.5206C159.837 15.1712 159.575 14.8963 159.238 14.696C158.906 14.4957 158.518 14.3956 158.075 14.3956C157.602 14.3956 157.187 14.5107 156.829 14.7408C156.471 14.9666 156.192 15.2649 155.991 15.6357C155.795 16.0021 155.695 16.4048 155.691 16.8438V18.2053C155.691 18.7763 155.795 19.2663 156.004 19.6754C156.213 20.0803 156.505 20.3913 156.88 20.6087C157.255 20.8217 157.694 20.9283 158.197 20.9283C158.533 20.9283 158.838 20.8814 159.111 20.7876C159.383 20.6896 159.62 20.5469 159.82 20.3594C160.02 20.1719 160.172 19.9396 160.274 19.6626L162.434 19.9055C162.298 20.4766 162.038 20.9751 161.655 21.4013C161.275 21.8232 160.79 22.1513 160.197 22.3857C159.605 22.6158 158.927 22.7308 158.165 22.7308Z" fill="#2D2F31"/>
<path d="M172.248 15.3161L170.138 15.5462C170.079 15.3331 169.974 15.1328 169.825 14.9453C169.68 14.7578 169.484 14.6065 169.237 14.4915C168.99 14.3764 168.688 14.3189 168.33 14.3189C167.848 14.3189 167.443 14.4233 167.115 14.6321C166.791 14.8409 166.631 15.1115 166.636 15.4439C166.631 15.7294 166.736 15.9616 166.949 16.1406C167.166 16.3196 167.524 16.4666 168.023 16.5817L169.697 16.9396C170.626 17.1399 171.317 17.4574 171.768 17.892C172.224 18.3267 172.455 18.8956 172.459 19.5987C172.455 20.2166 172.273 20.7621 171.915 21.2351C171.562 21.7038 171.07 22.0703 170.439 22.3345C169.808 22.5987 169.084 22.7308 168.266 22.7308C167.064 22.7308 166.097 22.4794 165.364 21.9766C164.631 21.4695 164.194 20.7642 164.053 19.8608L166.31 19.6435C166.412 20.0866 166.629 20.4212 166.962 20.647C167.294 20.8729 167.727 20.9858 168.259 20.9858C168.809 20.9858 169.25 20.8729 169.582 20.647C169.919 20.4212 170.087 20.142 170.087 19.8097C170.087 19.5284 169.979 19.2962 169.761 19.1129C169.548 18.9297 169.216 18.7891 168.764 18.6911L167.089 18.3395C166.148 18.1435 165.451 17.8132 164.999 17.3487C164.548 16.88 164.324 16.2876 164.328 15.5717C164.324 14.9666 164.488 14.4425 164.82 13.9993C165.157 13.5518 165.624 13.2067 166.22 12.9638C166.821 12.7166 167.513 12.593 168.298 12.593C169.448 12.593 170.354 12.8381 171.014 13.3281C171.679 13.8182 172.09 14.4808 172.248 15.3161Z" fill="#2D2F31"/>
</svg>
