<svg width="54" height="48" viewBox="0 0 54 48" fill="none" xmlns="http://www.w3.org/2000/svg">
<path d="M7.49998 17.7708V29.1458C7.50148 29.4998 7.61852 29.8436 7.83331 30.125C9.22915 32 15.1458 38.8333 26.6666 38.8333C38.1875 38.8333 44.1041 32 45.5 30.125C45.7148 29.8436 45.8318 29.4998 45.8333 29.1458V17.7708L26.6666 28L7.49998 17.7708Z" fill="#CFBEF2"/>
<path fill-rule="evenodd" clip-rule="evenodd" d="M26.0392 0.156863C26.4314 -0.0522876 26.9019 -0.0522876 27.2941 0.156863L52.2941 13.4902C52.7286 13.7219 53 14.1743 53 14.6667C53 15.1591 52.7286 15.6114 52.2941 15.8431L47.1666 18.5778V29.1458L47.1666 29.1515C47.1639 29.7929 46.9528 30.416 46.5652 30.9269C45.7935 31.9625 43.8188 34.3017 40.5 36.3673V44.6666C40.5 45.403 39.903 45.9999 39.1667 45.9999C38.4303 45.9999 37.8333 45.403 37.8333 44.6666V37.8052C34.8856 39.1662 31.1825 40.1667 26.6666 40.1667C14.5644 40.1667 8.2991 32.9813 6.76805 30.9269C6.38048 30.416 6.16937 29.7929 6.16666 29.1515L6.16665 29.1458V18.5778L1.0392 15.8431C0.604711 15.6114 0.333313 15.1591 0.333313 14.6667C0.333313 14.1743 0.604711 13.7219 1.0392 13.4902L26.0392 0.156863ZM8.23851 16.6606C8.16653 16.6126 8.08963 16.5714 8.00871 16.538L4.49998 14.6667L26.6666 2.84444L48.8333 14.6667L45.3246 16.538C45.2437 16.5714 45.1668 16.6126 45.0948 16.6605L39.1667 19.8222L27.2941 13.4901C26.6444 13.1436 25.8367 13.3894 25.4902 14.0392C25.1437 14.6889 25.3895 15.4965 26.0392 15.8431L36.3334 21.3333L26.6666 26.4889L8.23851 16.6606ZM8.83331 20V29.1419C8.83394 29.2048 8.85492 29.2659 8.89313 29.3159L8.9029 29.3288C10.1709 31.032 15.7385 37.5 26.6666 37.5C31.3426 37.5 35.0371 36.3158 37.8333 34.8275V23.5555L27.2941 29.1765C26.9019 29.3856 26.4314 29.3856 26.0392 29.1765L8.83331 20ZM40.5 33.1486C42.6155 31.5897 43.8997 30.0418 44.4305 29.3288L44.4401 29.3159C44.4783 29.2658 44.4993 29.2049 44.5 29.142V20L40.5 22.1333V33.1486Z" fill="#2D2F31"/>
</svg>
