<svg width="20" height="21" viewBox="0 0 20 21" fill="none" xmlns="http://www.w3.org/2000/svg">
<path d="M2.5 5.5V11.75" stroke="#6C747B" stroke-width="1.5" stroke-linecap="round" stroke-linejoin="round"/>
<path d="M4.23438 17.375C4.85974 16.4158 5.71451 15.6278 6.72128 15.0823C7.72804 14.5369 8.85497 14.2512 10 14.2512C11.145 14.2512 12.272 14.5369 13.2787 15.0823C14.2855 15.6278 15.1403 16.4158 15.7656 17.375" stroke="#6C747B" stroke-width="1.5" stroke-linecap="round" stroke-linejoin="round"/>
<path d="M17.5 5.5L10 8L2.5 5.5L10 3L17.5 5.5Z" stroke="#6C747B" stroke-width="1.5" stroke-linecap="round" stroke-linejoin="round"/>
<path d="M13.2266 6.92188C13.7999 7.54795 14.1787 8.3273 14.3167 9.16492C14.4548 10.0025 14.3462 10.8622 14.0042 11.6392C13.6622 12.4162 13.1015 13.0768 12.3905 13.5407C11.6795 14.0045 10.8489 14.2515 10 14.2515C9.15108 14.2515 8.3205 14.0045 7.60951 13.5407C6.89852 13.0768 6.33783 12.4162 5.99581 11.6392C5.65378 10.8622 5.54518 10.0025 5.68326 9.16492C5.82134 8.3273 6.20012 7.54795 6.77344 6.92188" stroke="#6C747B" stroke-width="1.5" stroke-linecap="round" stroke-linejoin="round"/>
</svg>
